<svg width="460" height="185" viewBox="0 0 460 185" fill="none" xmlns="http://www.w3.org/2000/svg">
<path d="M42.6201 79V40.4893H62.3589C67.0496 40.4893 70.5498 41.644 72.8594 43.9536C74.5244 45.6187 75.3569 47.7313 75.3569 50.2915C75.3569 54.284 73.3696 57.1396 69.395 58.8584C71.8836 59.682 73.7814 60.8457 75.0884 62.3496C76.3953 63.8356 77.0488 65.8498 77.0488 68.3921C77.0488 71.7043 75.7598 74.3003 73.1816 76.1802C70.6214 78.0601 67.0496 79 62.4663 79H42.6201ZM53.0132 70.4331H61.2578C62.887 70.4331 64.1493 70.1198 65.0444 69.4932C65.9396 68.8665 66.3872 67.9624 66.3872 66.7808C66.3872 65.7065 65.9486 64.8651 65.0713 64.2563C64.194 63.6297 62.887 63.3164 61.1504 63.3164H53.0132V70.4331ZM53.0132 55.8506H59.7271C63.0929 55.8506 64.7759 54.6958 64.7759 52.3862C64.7759 51.3299 64.3641 50.5153 63.5405 49.9424C62.717 49.3695 61.5174 49.083 59.9419 49.083H53.0132V55.8506ZM81.3188 79V49.2441H91.4434V64.1489L101.353 49.2441H110.967V79H100.843V64.0952L90.96 79H81.3188ZM116.553 87.8086V49.2441H127.027V53.1919C128.226 51.7417 129.515 50.6138 130.894 49.8081C132.273 48.9845 133.982 48.5728 136.023 48.5728C137.796 48.5728 139.479 48.9398 141.072 49.6738C142.666 50.39 144.071 51.4015 145.289 52.7085C146.506 54.0155 147.464 55.6536 148.162 57.623C148.878 59.5924 149.236 61.7498 149.236 64.0952C149.236 66.4406 148.878 68.6069 148.162 70.5942C147.464 72.5636 146.506 74.2108 145.289 75.5356C144.089 76.8426 142.693 77.8631 141.099 78.5972C139.506 79.3133 137.832 79.6714 136.077 79.6714C134.018 79.6714 132.273 79.2865 130.84 78.5166C129.426 77.7467 128.155 76.6994 127.027 75.3745V87.8086H116.553ZM126.785 64.1489C126.785 66.1004 127.367 67.7207 128.531 69.0098C129.712 70.2809 131.154 70.9165 132.854 70.9165C134.591 70.9165 136.041 70.2809 137.205 69.0098C138.369 67.7386 138.951 66.0825 138.951 64.0415C138.951 62.1079 138.36 60.5055 137.178 59.2344C136.014 57.9632 134.573 57.3276 132.854 57.3276C131.154 57.3276 129.712 57.9722 128.531 59.2612C127.367 60.5324 126.785 62.1616 126.785 64.1489ZM151.465 57.6499V49.2441H179.314V57.6499H170.613V79H160.167V57.6499H151.465ZM180.496 49.2441H191.426L197.361 67.1836L202.974 49.2441H213.716L202.813 78.2749C201.506 81.8019 200.02 84.2995 198.355 85.7676C196.69 87.2357 194.398 87.9697 191.48 87.9697C188.186 87.9697 184.999 87.1104 181.919 85.3916L185.169 78.0601C186.941 79.1343 188.463 79.6714 189.734 79.6714C190.773 79.6714 191.578 79.2686 192.151 78.4629L180.496 49.2441ZM215.623 70.3525C215.623 67.3447 216.67 65.0352 218.765 63.4238C220.86 61.8125 223.698 61.0068 227.278 61.0068C229.946 61.0068 232.336 61.3918 234.449 62.1616V61.6782C234.449 58.4556 232.461 56.8442 228.487 56.8442C225.765 56.8442 223.035 57.3903 220.296 58.4824L218.147 51.124C221.925 49.5843 225.944 48.8145 230.206 48.8145C235.344 48.8145 239.122 50.0229 241.539 52.4399C243.669 54.5168 244.734 57.6678 244.734 61.8931V79H234.395V75.9116C232.121 78.4181 229.203 79.6714 225.64 79.6714C222.704 79.6714 220.296 78.8568 218.416 77.2275C216.554 75.5804 215.623 73.2887 215.623 70.3525ZM225.694 69.8691C225.694 70.8717 226.034 71.6685 226.714 72.2593C227.395 72.8322 228.281 73.1187 229.373 73.1187C230.913 73.1187 232.157 72.6711 233.106 71.7759C234.073 70.8807 234.556 69.6991 234.556 68.231V66.8345C233.339 66.3332 231.978 66.0825 230.474 66.0825C228.97 66.0825 227.798 66.4227 226.956 67.103C226.115 67.7834 225.694 68.7054 225.694 69.8691ZM247.769 78.9463L248.226 70.8628C248.995 70.9702 249.559 71.0239 249.917 71.0239C250.24 71.0239 250.508 70.9971 250.723 70.9434C250.956 70.8896 251.215 70.7464 251.502 70.5137C251.806 70.2809 252.057 69.9497 252.254 69.52C252.451 69.0903 252.657 68.4816 252.872 67.6938C253.086 66.9061 253.257 65.9572 253.382 64.8472C253.525 63.7371 253.632 62.3496 253.704 60.6846C253.794 59.0016 253.838 57.0949 253.838 54.9644V49.2441H279.512V79H269.065V57.5425H263.56V58.3213C263.56 61.8304 263.372 64.8651 262.996 67.4253C262.62 69.9676 262.119 71.9997 261.492 73.5215C260.866 75.0433 260.051 76.2518 259.048 77.147C258.064 78.0243 257.052 78.6151 256.014 78.9194C254.993 79.2238 253.794 79.376 252.415 79.376C251.001 79.376 249.452 79.2327 247.769 78.9463ZM285.098 79V49.2441H295.572V58.5898H300.621C304.273 58.5898 307.227 59.4671 309.483 61.2217C311.757 62.9583 312.894 65.4559 312.894 68.7144C312.894 71.9191 311.828 74.4346 309.698 76.2607C307.567 78.0869 304.685 79 301.05 79H285.098ZM295.572 71.6416H298.794C300.066 71.6416 301.05 71.3641 301.749 70.8091C302.465 70.2541 302.823 69.4484 302.823 68.3921C302.823 67.4253 302.465 66.6733 301.749 66.1362C301.032 65.5812 300.048 65.3037 298.794 65.3037H295.572V71.6416ZM316.788 79V49.2441H327.261V59.7983H335.828V49.2441H346.275V79H335.828V68.231H327.261V79H316.788ZM350.384 70.3525C350.384 67.3447 351.431 65.0352 353.526 63.4238C355.621 61.8125 358.458 61.0068 362.039 61.0068C364.707 61.0068 367.097 61.3918 369.209 62.1616V61.6782C369.209 58.4556 367.222 56.8442 363.248 56.8442C360.526 56.8442 357.796 57.3903 355.057 58.4824L352.908 51.124C356.686 49.5843 360.705 48.8145 364.966 48.8145C370.105 48.8145 373.882 50.0229 376.299 52.4399C378.43 54.5168 379.495 57.6678 379.495 61.8931V79H369.156V75.9116C366.882 78.4181 363.964 79.6714 360.401 79.6714C357.465 79.6714 355.057 78.8568 353.177 77.2275C351.315 75.5804 350.384 73.2887 350.384 70.3525ZM360.455 69.8691C360.455 70.8717 360.795 71.6685 361.475 72.2593C362.155 72.8322 363.042 73.1187 364.134 73.1187C365.674 73.1187 366.918 72.6711 367.867 71.7759C368.833 70.8807 369.317 69.6991 369.317 68.231V66.8345C368.099 66.3332 366.739 66.0825 365.235 66.0825C363.731 66.0825 362.558 66.4227 361.717 67.103C360.875 67.7834 360.455 68.7054 360.455 69.8691ZM382.718 79L389.7 68.6606C386.03 66.924 384.195 63.9162 384.195 59.6372C384.195 56.6115 385.108 54.2482 386.934 52.5474C389.029 50.3452 392.278 49.2441 396.683 49.2441H413.226V79H402.725V70.4331H400.362L394.642 79H382.718ZM394.749 60.2012C394.749 61.1501 395.08 61.8841 395.743 62.4033C396.405 62.9046 397.354 63.1553 398.589 63.1553H402.725V57.1128H398.589C397.372 57.1128 396.423 57.3813 395.743 57.9185C395.08 58.4377 394.749 59.1986 394.749 60.2012ZM116.124 135.28L122.623 130.5C123.518 131.502 124.422 132.245 125.335 132.729C126.248 133.212 127.322 133.454 128.558 133.454C129.936 133.454 131.154 133.069 132.21 132.299C133.266 131.529 134.036 130.491 134.52 129.184H126.49V123.168H134.52C134.036 121.879 133.266 120.849 132.21 120.08C131.172 119.292 129.99 118.898 128.665 118.898C126.159 118.898 124.144 119.883 122.623 121.852L116.419 116.75C119.212 112.685 123.312 110.653 128.719 110.653C131.78 110.653 134.537 111.361 136.99 112.775C139.443 114.189 141.332 116.078 142.657 118.441C144 120.787 144.671 123.356 144.671 126.149C144.671 128.96 144 131.556 142.657 133.937C141.332 136.318 139.47 138.216 137.071 139.63C134.69 141.027 132.04 141.725 129.122 141.725C123.518 141.725 119.185 139.577 116.124 135.28ZM149.048 141V111.244H159.522V122.309L167.605 111.244H179.422L169.244 123.463L179.69 141H168.196L162.53 131.493L159.522 135.119V141H149.048ZM180.979 126.149C180.979 123.356 181.642 120.787 182.967 118.441C184.31 116.078 186.207 114.189 188.66 112.775C191.113 111.361 193.87 110.653 196.932 110.653C202.625 110.653 206.859 112.864 209.634 117.287L202.652 122.362C201.255 120.411 199.465 119.435 197.281 119.435C195.437 119.435 193.951 120.08 192.823 121.369C191.713 122.64 191.158 124.233 191.158 126.149C191.158 128.083 191.713 129.694 192.823 130.983C193.933 132.272 195.356 132.917 197.093 132.917C198.257 132.917 199.259 132.666 200.101 132.165C200.942 131.645 201.81 130.849 202.706 129.774L209.822 134.904C206.779 139.451 202.356 141.725 196.556 141.725C193.637 141.725 190.979 141.027 188.58 139.63C186.181 138.216 184.31 136.318 182.967 133.937C181.642 131.556 180.979 128.96 180.979 126.149ZM213.501 141V111.244H223.975V122.309L232.059 111.244H243.875L233.697 123.463L244.144 141H232.649L226.983 131.493L223.975 135.119V141H213.501ZM244.466 111.244H255.396L261.331 129.184L266.944 111.244H277.686L266.783 140.275C265.476 143.802 263.99 146.299 262.325 147.768C260.66 149.236 258.368 149.97 255.45 149.97C252.155 149.97 248.969 149.11 245.889 147.392L249.139 140.06C250.911 141.134 252.433 141.671 253.704 141.671C254.743 141.671 255.548 141.269 256.121 140.463L244.466 111.244ZM281.07 149.809V111.244H291.543V115.192C292.743 113.742 294.032 112.614 295.411 111.808C296.789 110.985 298.499 110.573 300.54 110.573C302.312 110.573 303.995 110.94 305.589 111.674C307.182 112.39 308.588 113.402 309.805 114.708C311.023 116.015 311.98 117.654 312.679 119.623C313.395 121.592 313.753 123.75 313.753 126.095C313.753 128.441 313.395 130.607 312.679 132.594C311.98 134.564 311.023 136.211 309.805 137.536C308.606 138.843 307.209 139.863 305.616 140.597C304.022 141.313 302.348 141.671 300.594 141.671C298.535 141.671 296.789 141.286 295.357 140.517C293.943 139.747 292.671 138.699 291.543 137.375V149.809H281.07ZM291.302 126.149C291.302 128.1 291.884 129.721 293.047 131.01C294.229 132.281 295.67 132.917 297.371 132.917C299.108 132.917 300.558 132.281 301.722 131.01C302.885 129.739 303.467 128.083 303.467 126.042C303.467 124.108 302.876 122.506 301.695 121.234C300.531 119.963 299.09 119.328 297.371 119.328C295.67 119.328 294.229 119.972 293.047 121.261C291.884 122.532 291.302 124.162 291.302 126.149ZM317.029 126.149C317.029 123.356 317.692 120.787 319.017 118.441C320.359 116.078 322.257 114.189 324.71 112.775C327.163 111.361 329.92 110.653 332.981 110.653C338.675 110.653 342.909 112.864 345.684 117.287L338.702 122.362C337.305 120.411 335.515 119.435 333.331 119.435C331.486 119.435 330 120.08 328.873 121.369C327.763 122.64 327.208 124.233 327.208 126.149C327.208 128.083 327.763 129.694 328.873 130.983C329.983 132.272 331.406 132.917 333.143 132.917C334.306 132.917 335.309 132.666 336.15 132.165C336.992 131.645 337.86 130.849 338.755 129.774L345.872 134.904C342.828 139.451 338.406 141.725 332.605 141.725C329.687 141.725 327.028 141.027 324.629 139.63C322.23 138.216 320.359 136.318 319.017 133.937C317.692 131.556 317.029 128.96 317.029 126.149ZM349.551 141V111.244H359.676V126.149L369.585 111.244H379.2V141H369.075V126.095L359.192 141H349.551ZM382.718 141L389.7 130.661C386.03 128.924 384.195 125.916 384.195 121.637C384.195 118.611 385.108 116.248 386.934 114.547C389.029 112.345 392.278 111.244 396.683 111.244H413.226V141H402.725V132.433H400.362L394.642 141H382.718ZM394.749 122.201C394.749 123.15 395.08 123.884 395.743 124.403C396.405 124.905 397.354 125.155 398.589 125.155H402.725V119.113H398.589C397.372 119.113 396.423 119.381 395.743 119.918C395.08 120.438 394.749 121.199 394.749 122.201Z" fill="white"/>
</svg>
